<svg xmlns="http://www.w3.org/2000/svg" viewBox="0 0 480 480" style="enable-background:new 0 0 480 480" xml:space="preserve">
  <g style="fill:#fff">
    <path d="M391.502 210.725c-5.311-1.52-10.846 1.555-12.364 6.865-1.519 5.31 1.555 10.846 6.864 12.364C431.646 243.008 460 261.942 460 279.367c0 12.752-15.51 26.749-42.552 38.402-29.752 12.82-71.958 22.2-118.891 26.425l-40.963-.555-.139-.001c-5.46 0-9.922 4.389-9.996 9.865-.075 5.522 4.342 10.06 9.863 10.134l41.479.562.136.001c.297 0 .593-.013.888-.039 49.196-4.386 93.779-14.339 125.538-28.024C470.521 316.676 480 294.524 480 279.367c0-27.943-31.43-52.321-88.498-68.642zM96.879 199.333c-5.522 0-10 4.477-10 10s4.478 10 10 10H138v41.333H96.879c-5.522 0-10 4.477-10 10s4.478 10 10 10H148c5.523 0 10-4.477 10-10V148c0-5.523-4.477-10-10-10H96.879c-5.522 0-10 4.477-10 10s4.478 10 10 10H138v41.333H96.879zM188.879 280.667h61.334c5.522 0 10-4.477 10-10v-61.333c0-5.523-4.477-10-10-10h-51.334V158H240c5.523 0 10-4.477 10-10s-4.477-10-10-10h-51.121c-5.523 0-10 4.477-10 10v122.667c0 5.523 4.477 10 10 10zm10-61.334h41.334v41.333h-41.334v-41.333z" style="fill:#fff"/>
    <path d="M291.121 280.667h61.334c5.522 0 10-4.477 10-10V148c0-5.523-4.478-10-10-10h-61.334c-5.522 0-10 4.477-10 10v122.667c0 5.523 4.478 10 10 10zm10-122.667h41.334v102.667h-41.334V158zM182.857 305.537c-3.567-4.216-9.877-4.743-14.093-1.176-4.217 3.567-4.743 9.876-1.177 14.093l22.366 26.44c-47.196-3.599-89.941-12.249-121.37-24.65C37.708 308.06 20 293.162 20 279.367c0-16.018 23.736-33.28 63.493-46.176 5.254-1.704 8.131-7.344 6.427-12.598-1.703-5.253-7.345-8.13-12.597-6.427-23.129 7.502-41.47 16.427-54.515 26.526C7.674 252.412 0 265.423 0 279.367c0 23.104 21.178 43.671 61.242 59.48 32.564 12.849 76.227 21.869 124.226 25.758l-19.944 22.104c-3.7 4.1-3.376 10.424.725 14.123a9.96 9.96 0 0 0 6.696 2.576 9.975 9.975 0 0 0 7.427-3.301l36.387-40.325a9.999 9.999 0 0 0 2.576-6.699v-.764a9.999 9.999 0 0 0-2.365-6.458l-34.113-40.324zM381.414 137.486h40.879c5.522 0 10-4.477 10-10V86.592c0-5.523-4.478-10-10-10h-40.879c-5.522 0-10 4.477-10 10v40.894c0 5.523 4.478 10 10 10zm10-40.894h20.879v20.894h-20.879V96.592z" style="fill:#fff"/>
  </g>
</svg>
