<?xml version="1.0" encoding="UTF-8"?>
<svg width="27px" height="27px" viewBox="0 0 27 27" version="1.1" xmlns="http://www.w3.org/2000/svg" xmlns:xlink="http://www.w3.org/1999/xlink">
    <!-- Generator: Sketch 50.2 (55047) - http://www.bohemiancoding.com/sketch -->
    <title>icon-history</title>
    <desc>Created with Sketch.</desc>
    <defs>
        <linearGradient x1="18.4174141%" y1="0%" x2="18.4174135%" y2="100%" id="linearGradient-1">
            <stop stop-color="#1D2225" offset="0%"></stop>
            <stop stop-color="#16181A" offset="100%"></stop>
        </linearGradient>
    </defs>
    <g id="Symbols" stroke="none" stroke-width="1" fill="none" fill-rule="evenodd">
        <g id="HEADER/DEFAULT" transform="translate(-491.000000, -33.000000)" fill="#000000" fill-rule="nonzero">
            <g id="HEADER">
                <g id="PLAYBACK">
                    <g transform="translate(470.000000, 14.000000)">
                        <g id="Line-3-Copy-8">
                            <g id="Group-8">
                                <g id="icon-history" transform="translate(21.000000, 19.000000)">
                                    <path d="M18.9990197,1.16899054 C15.7035696,-0.291023041 11.9535748,-0.403331778 8.54448852,0.944373064 C6.27176435,1.84284296 4.2263126,3.30285654 2.74904189,5.21210506 L2.18086085,3.1905478 C2.06722464,2.51669538 1.4990436,2.17976917 0.81722635,2.29207791 C0.249045308,2.51669538 -0.0918633168,3.07823906 0.0217728915,3.63978275 L1.15813497,8.24444096 C1.27177118,8.80598464 1.72631602,9.14291085 2.29449706,9.14291085 C2.40813327,9.14291085 2.52176947,9.14291085 2.52176947,9.14291085 L7.18085402,8.01982348 C7.74903506,7.90751474 8.20357989,7.23366232 7.97630747,6.67211864 C7.97630747,5.99826622 7.29449022,5.66134001 6.72630918,5.88595748 L4.79449364,6.33519243 C6.04449193,4.87517885 7.52176264,3.75209148 9.33994197,3.07823906 C12.1808472,1.95515169 15.2490248,2.06746043 18.08993,3.30285654 C20.817199,4.53825264 22.976287,6.67211864 24.1126491,9.47983706 C25.2490111,12.2875555 25.1353749,15.3198914 23.8853766,18.1276098 C22.6353783,20.9353282 20.4762904,22.9568855 17.6353852,24.0799728 C13.6581179,25.5399864 9.22630577,24.866134 6.04449193,22.0584156 C4.68085743,20.8230195 3.54449535,19.3630059 2.8626781,17.6783748 C2.63540568,17.1168312 1.95358843,16.779905 1.38540739,17.0045224 C0.81722635,17.2291399 0.476317725,17.9029923 0.703590141,18.464536 C1.4990436,20.4860933 2.8626781,22.3953418 4.45358502,23.7430466 C6.9535816,25.8769126 10.1353954,27 13.4308455,27 C15.1353886,27 16.7262955,26.6630738 18.3172024,26.1015301 C21.7262887,24.7538253 24.3399215,22.2830331 25.8171922,19.0260797 C27.2944629,15.7691263 27.4080991,12.062938 26.0444646,8.6936759 C24.6808301,5.3244138 22.4081059,2.62900412 18.9990197,1.16899054 Z" id="Shape"></path>
                                    <path d="M13.1716592,7 C12.4686637,7 12,7.43636364 12,8.09090909 L12,14.6363636 C12,14.9636364 12.1171659,15.2909091 12.4686637,15.5090909 L17.1553007,18.7818182 C17.3896325,18.8909091 17.6239644,19 17.8582962,19 C18.209794,19 18.5612917,18.8909091 18.7956236,18.5636364 C19.1471214,18.1272727 19.0299554,17.3636364 18.5612917,17.0363636 L14.3433185,14.0909091 L14.3433185,8.09090909 C14.3433185,7.43636364 13.8746548,7 13.1716592,7 Z" id="Shape"></path>
                                </g>
                            </g>
                        </g>
                    </g>
                </g>
            </g>
        </g>
    </g>
</svg>