<?xml version="1.0" encoding="UTF-8"?>
<svg width="35px" height="35px" viewBox="0 0 35 35" version="1.1" xmlns="http://www.w3.org/2000/svg" xmlns:xlink="http://www.w3.org/1999/xlink">
    <!-- Generator: Sketch 50.2 (55047) - http://www.bohemiancoding.com/sketch -->
    <title>icon-play</title>
    <desc>Created with Sketch.</desc>
    <defs>
        <linearGradient x1="18.4174141%" y1="0%" x2="18.4174135%" y2="100%" id="linearGradient-1">
            <stop stop-color="#1D2225" offset="0%"></stop>
            <stop stop-color="#16181A" offset="100%"></stop>
        </linearGradient>
    </defs>
    <g id="Symbols" stroke="none" stroke-width="1" fill="none" fill-rule="evenodd">
        <g id="HEADER/DEFAULT" transform="translate(-924.000000, -28.000000)" fill="#000000">
            <g id="HEADER">
                <g id="PLAYBACK">
                    <g transform="translate(470.000000, 14.000000)">
                        <g id="PLAY" transform="translate(406.000000, 13.000000)">
                            <g id="icon-play" transform="translate(49.000000, 2.000000)">
                                <circle id="Oval-3" stroke="#000000" fill-opacity="0" cx="16.5" cy="16.5" r="16.5"></circle>
                                <path d="M23.3072917,18.2032147 L12.078125,24.8163031 C11.859375,24.9632606 11.6041667,25 11.3854167,25 C11.1666667,25 10.9114583,24.9632606 10.6927083,24.8163031 C10.2552083,24.5958668 10,24.1182549 10,23.6039036 L10,10.3777268 C10,9.86337543 10.2916667,9.38576349 10.6927083,9.16532721 C11.1302083,8.94489093 11.6770833,8.94489093 12.078125,9.16532721 L23.3072917,15.7784156 C23.7447917,15.9988519 24,16.4764638 24,16.9908152 C24,17.5051665 23.7083333,17.9827784 23.3072917,18.2032147 Z" id="Path"></path>
                            </g>
                        </g>
                    </g>
                </g>
            </g>
        </g>
    </g>
</svg>