<?xml version="1.0" encoding="UTF-8"?>
<svg width="34px" height="34px" viewBox="0 0 34 34" version="1.1" xmlns="http://www.w3.org/2000/svg" xmlns:xlink="http://www.w3.org/1999/xlink">
    <!-- Generator: Sketch 50.2 (55047) - http://www.bohemiancoding.com/sketch -->
    <title>icon-account</title>
    <desc>Created with Sketch.</desc>
    <defs>
        <linearGradient x1="18.4174141%" y1="0%" x2="18.4174135%" y2="100%" id="linearGradient-1">
            <stop stop-color="#1D2225" offset="0%"></stop>
            <stop stop-color="#16181A" offset="100%"></stop>
        </linearGradient>
    </defs>
    <g id="Symbols" stroke="none" stroke-width="1" fill="none" fill-rule="evenodd">
        <g id="HEADER/DEFAULT" transform="translate(-1347.000000, -27.000000)" fill="#000000" fill-rule="nonzero">
            <g id="HEADER">
                <g id="ACCOUNT">
                    <g transform="translate(76.000000, 17.000000)">
                        <g transform="translate(1265.000000, 0.000000)">
                            <path d="M23,10 C13.6231579,10 6,17.6231579 6,27 C6,36.3768421 13.6231579,44 23,44 C32.3768421,44 40,36.3768421 40,27 C40,17.6231579 32.3768421,10 23,10 Z M32.5269643,36 C32.0309138,35.0987461 31.251406,34.3416928 30.2238729,33.9451411 L26.7160875,32.3949843 C25.794851,32.0344828 25.1570718,31.1332288 25.0862075,30.1238245 L25.0153431,29.4749216 C26.6452232,28.2131661 27.7436206,25.7617555 27.7436206,23.1661442 C27.7436206,19.4169279 25.4050971,16.8213166 22.5350909,16.8213166 C19.6650847,16.8213166 17.3265611,19.4169279 17.3265611,23.1661442 C17.3265611,25.7617555 18.4249586,28.177116 20.0548386,29.4749216 L19.9839743,30.1238245 C19.9131099,31.1332288 19.2753308,31.9984326 18.3540942,32.3949843 L14.8463089,33.9451411 C13.854208,34.3416928 13.039268,35.0987461 12.5432175,36 C10.3464227,33.5485893 9,30.3040752 9,26.7351097 C9,19.1645768 15.0589019,13 22.4996587,13 C29.9404155,13 35.9993174,19.1645768 35.9993174,26.7351097 C36.0347496,30.3040752 34.6883269,33.5485893 32.5269643,36 Z" id="icon-account"></path>
                        </g>
                    </g>
                </g>
            </g>
        </g>
    </g>
</svg>