<?xml version="1.0" encoding="UTF-8"?>
<svg width="133px" height="133px" viewBox="0 0 133 133" version="1.1" xmlns="http://www.w3.org/2000/svg" xmlns:xlink="http://www.w3.org/1999/xlink">
    <!-- Generator: Sketch 50.2 (55047) - http://www.bohemiancoding.com/sketch -->
    <title>Fill 4</title>
    <desc>Created with Sketch.</desc>
    <defs></defs>
    <g id="openpilot" stroke="none" stroke-width="1" fill="none" fill-rule="evenodd">
        <g id="openpilot-v0-5-0-onroad-ready-01-destination-01-copy-41" transform="translate(-1647.000000, -118.000000)" fill="#FFFFFF">
            <g id="CANVAS" transform="translate(76.000000, 40.000000)">
                <g id="HEADER" transform="translate(-8.000000, -20.000000)">
                    <g id="METRICS" transform="translate(99.000000, 48.000000)">
                        <g id="STATUS-ICON" transform="translate(1463.000000, 33.000000)">
                            <path d="M72.8088307,117.951807 C84.563255,115.328764 92.8152352,107.971457 96.339954,99.47467 C99.0956092,92.8317584 99.6615139,85.9847001 96.9745964,79.228627 C93.2120648,69.7678049 80.9399905,66.8291048 73.6812451,73.4760269 C69.9436757,76.8985535 68.8408598,82.1898965 70.9143915,86.7516269 C72.9260675,91.1774298 77.1641431,93.6403639 82.236355,93.1566161 C83.6910035,93.0178576 85.1193459,92.5041877 86.5286308,92.0685669 C88.3209408,91.5145945 89.0678927,91.9203324 89.0176425,93.7416903 C88.976799,95.22435 88.8565081,96.7401953 88.4878983,98.1733518 C86.6169554,105.447656 81.729822,110.292054 74.9544799,113.582703 C72.3653343,114.84018 72.3804012,114.869158 72.8088307,117.951807 M39.9610472,95.5250201 C35.2523737,95.3866577 31.5532781,97.3205837 29.3897299,100.815339 C29.0211033,101.41074 28.8986581,102.44039 29.1505684,103.082761 C35.1391674,118.352861 45.7406622,129.311456 60.9026053,135.950261 C61.449312,136.189656 62.2194862,136.518053 62.6547214,136.317222 C64.5235942,135.454858 66.6097618,134.724242 68.054252,133.363407 C70.7263411,130.846072 70.3767167,125.935223 67.5798425,124.30077 C58.9295229,119.245543 53.0639744,111.77254 48.3864871,103.210686 C47.5555139,101.689616 46.6762888,100.170419 45.6226549,98.7974717 C44.04406,96.7404418 41.9244065,95.5163749 39.9610472,95.5250201 M128.245715,95.5290006 C125.291435,95.3901102 123.090307,96.583037 121.424123,98.6553509 C120.374682,99.9605781 119.508436,101.432601 118.712007,102.909807 C114.021485,111.610631 108.117403,119.210537 99.3625388,124.340314 C98.5677237,124.806099 97.9277092,125.803886 97.5809204,126.693677 C96.3189609,129.931531 97.7144248,133.373255 100.990688,135.089173 C102.495335,135.877229 104.011114,136.905273 105.928617,136.067187 C121.163366,129.40818 131.828433,118.429099 137.846578,103.077799 C138.083982,102.472127 138.000814,101.509581 137.66189,100.955375 C135.498957,97.4189709 132.234794,95.66227 128.245715,95.5290006 M139.584337,71.9656271 C134.49123,46.1301472 109.89642,24.2460036 78.560851,26.8208458 C48.4307144,29.296618 30.3334996,53.088681 27.4156627,71.9604232 C27.790037,72.0296392 28.166036,72.1198665 28.5475039,72.1642367 C28.9896833,72.2156889 29.4362614,72.2383435 29.8816111,72.2537597 C35.5046362,72.4484565 40.6492215,70.914632 45.5077257,68.1835159 C49.5734139,65.8981365 53.6453239,63.6039536 57.8405987,61.5667971 C67.9123651,56.6761346 78.5153174,54.4114535 89.7756736,55.7512855 C98.3274336,56.7688269 106.150418,59.872512 113.659422,63.8632103 C117.337778,65.8181606 120.889479,68.0244639 124.650421,69.8040853 C129.306738,72.0073367 134.275688,72.7832678 139.584337,71.9656271 M83.6102772,17.0000508 C120.517385,17.0450848 150.049595,46.7678337 149.999937,83.818186 C149.950876,120.456401 120.100622,150.077446 83.3060966,149.999848 C46.4374431,149.922091 16.9376896,120.156373 17.0000988,83.0960527 C17.0615944,46.5551332 46.8917475,16.955255 83.6102772,17.0000508" id="Fill-4"></path>
                        </g>
                    </g>
                </g>
            </g>
        </g>
    </g>
</svg>