<?xml version="1.0" encoding="UTF-8"?>
<svg width="24px" height="24px" viewBox="0 0 24 24" version="1.1" xmlns="http://www.w3.org/2000/svg" xmlns:xlink="http://www.w3.org/1999/xlink">
    <title>History Icon</title>
    <defs></defs>
    <g id="Desktop" stroke="none" stroke-width="1" fill="none" fill-rule="evenodd">
        <g id="Artboard" transform="translate(-123.000000, -189.000000)" fill="#000000" fill-rule="nonzero">
            <g id="icon-history" transform="translate(123.000000, 189.000000)">
                <path d="M16.8880175,1.0391027 C13.9587286,-0.258687148 10.6253998,-0.358517136 7.5951009,0.839442723 C5.57490164,1.63808263 3.75672231,2.93587248 2.44359279,4.63298228 L1.93854298,2.83604249 C1.83753301,2.23706256 1.3324832,1.93757259 0.726423422,2.03740258 C0.221373607,2.23706256 -0.0816562816,2.7362125 0.0193536814,3.23536244 L1.02945331,7.32839196 C1.13046327,7.8275419 1.53450313,8.12703187 2.03955294,8.12703187 C2.1405629,8.12703187 2.24157287,8.12703187 2.24157287,8.12703187 L6.38298135,7.12873198 C6.88803116,7.028902 7.29207101,6.42992207 7.09005109,5.93077212 C7.09005109,5.3317922 6.48399131,5.03230223 5.9789415,5.23196221 L4.26177213,5.63128216 C5.37288172,4.33349231 6.68601124,3.33519243 8.30217064,2.7362125 C10.8274197,1.73791262 13.5546887,1.83774261 16.0799378,2.93587248 C18.5041769,4.03400235 20.4233662,5.93077212 21.4334658,8.42652183 C22.4435655,10.9222715 22.3425555,13.6176812 21.2314459,16.1134309 C20.1203363,18.6091806 18.201147,20.4061204 15.6758979,21.4044203 C12.1405492,22.7022102 8.20116068,22.1032302 5.37288172,19.6074805 C4.16076216,18.5093506 3.15066253,17.2115608 2.54460276,15.714111 C2.34258283,15.214961 1.73652305,14.9154711 1.23147324,15.115131 C0.726423422,15.314791 0.423393533,15.913771 0.625413459,16.4129209 C1.3324832,18.2098607 2.54460276,19.9069705 3.95874224,21.1049303 C6.18096142,23.0017001 9.00924038,24 11.9385293,24 C13.4536788,24 14.8678182,23.70051 16.2819577,23.2013601 C19.3122566,22.0034002 21.6354858,19.8071405 22.9486153,16.9120708 C24.2617448,14.0170012 24.3627548,10.7226116 23.1506352,7.72771191 C21.9385156,4.73281227 19.9183164,2.33689255 16.8880175,1.0391027 Z" id="Shape"></path>
                <path d="M11.7081415,6.22222222 C11.0832566,6.22222222 10.6666667,6.61010101 10.6666667,7.19191919 L10.6666667,13.010101 C10.6666667,13.3010101 10.7708142,13.5919192 11.0832566,13.7858586 L15.2491561,16.6949495 C15.4574511,16.7919192 15.6657461,16.8888889 15.8740411,16.8888889 C16.1864835,16.8888889 16.498926,16.7919192 16.707221,16.5010101 C17.0196634,16.1131313 16.9155159,15.4343434 16.498926,15.1434343 L12.7496164,12.5252525 L12.7496164,7.19191919 C12.7496164,6.61010101 12.3330265,6.22222222 11.7081415,6.22222222 Z" id="Shape"></path>
            </g>
        </g>
    </g>
</svg>
