<?xml version="1.0" encoding="UTF-8"?>
<svg width="24px" height="24px" viewBox="0 0 24 24" version="1.1" xmlns="http://www.w3.org/2000/svg" xmlns:xlink="http://www.w3.org/1999/xlink">
    <title>Account Icon</title>
    <defs></defs>
    <g id="Desktop" stroke="none" stroke-width="1" fill="none" fill-rule="evenodd">
        <g id="Artboard" transform="translate(-198.000000, -189.000000)" fill="#000000" fill-rule="nonzero">
            <path d="M210,189 C203.381053,189 198,194.381053 198,201 C198,207.618947 203.381053,213 210,213 C216.618947,213 222,207.618947 222,201 C222,194.381053 216.618947,189 210,189 Z M216.724916,207.352941 C216.374763,206.716762 215.824522,206.182371 215.099204,205.902453 L212.623121,204.808224 C211.972836,204.553753 211.522639,203.917573 211.472617,203.205053 L211.422595,202.747004 C212.573099,201.856353 213.348438,200.125945 213.348438,198.293749 C213.348438,195.647243 211.697716,193.815047 209.671829,193.815047 C207.645942,193.815047 205.99522,195.647243 205.99522,198.293749 C205.99522,200.125945 206.770559,201.830905 207.921063,202.747004 L207.871041,203.205053 C207.821019,203.917573 207.370822,204.528305 206.720537,204.808224 L204.244453,205.902453 C203.544147,206.182371 202.968895,206.716762 202.618742,207.352941 C201.068063,205.622534 200.117647,203.332288 200.117647,200.813019 C200.117647,195.469113 204.394519,191.117647 209.646818,191.117647 C214.899117,191.117647 219.175989,195.469113 219.175989,200.813019 C219.201,203.332288 218.250584,205.622534 216.724916,207.352941 Z" id="Shape"></path>
        </g>
    </g>
</svg>
