<?xml version="1.0" encoding="UTF-8" standalone="no"?>
<!-- Created with Inkscape (http://www.inkscape.org/) -->

<svg
   xmlns:dc="http://purl.org/dc/elements/1.1/"
   xmlns:cc="http://creativecommons.org/ns#"
   xmlns:rdf="http://www.w3.org/1999/02/22-rdf-syntax-ns#"
   xmlns:svg="http://www.w3.org/2000/svg"
   xmlns="http://www.w3.org/2000/svg"
   xmlns:sodipodi="http://sodipodi.sourceforge.net/DTD/sodipodi-0.dtd"
   xmlns:inkscape="http://www.inkscape.org/namespaces/inkscape"
   width="5.9495811mm"
   height="8.46667mm"
   viewBox="0 0 5.9495811 8.46667"
   version="1.1"
   id="svg8"
   inkscape:version="0.92.5 (2060ec1f9f, 2020-04-08)"
   sodipodi:docname="car.svg">
  <defs
     id="defs2" />
  <sodipodi:namedview
     id="base"
     pagecolor="#ffffff"
     bordercolor="#666666"
     borderopacity="1.0"
     inkscape:pageopacity="0.0"
     inkscape:pageshadow="2"
     inkscape:zoom="16"
     inkscape:cx="32.436775"
     inkscape:cy="0.76860867"
     inkscape:document-units="mm"
     inkscape:current-layer="layer1"
     showgrid="false"
     showguides="false"
     inkscape:window-width="2488"
     inkscape:window-height="1376"
     inkscape:window-x="1272"
     inkscape:window-y="200"
     inkscape:window-maximized="1">
    <inkscape:grid
       type="xygrid"
       id="grid4623"
       originx="-1.2584906"
       originy="-6.0159287e-14" />
  </sodipodi:namedview>
  <metadata
     id="metadata5">
    <rdf:RDF>
      <cc:Work
         rdf:about="">
        <dc:format>image/svg+xml</dc:format>
        <dc:type
           rdf:resource="http://purl.org/dc/dcmitype/StillImage" />
        <dc:title></dc:title>
      </cc:Work>
    </rdf:RDF>
  </metadata>
  <g
     inkscape:label="Layer 1"
     inkscape:groupmode="layer"
     id="layer1"
     transform="translate(-1.2584906,-288.53333)">
    <path
       d="m 4.2333317,288.53318 c -1.3729761,0 -2.9748411,0.83907 -2.9748411,2.97484 0,1.44924 2.288355,4.65292 2.9748411,5.49198 0.6102326,-0.83906 2.9748443,-3.96642 2.9748443,-5.49198 0,-2.13577 -1.6018623,-2.97484 -2.9748443,-2.97484 z"
       id="path4133"
       inkscape:connector-curvature="0"
       style="fill:#31a1ee;fill-opacity:1;stroke-width:0.56445432" />
    <path
       id="path4625"
       d="m 6.2376535,291.33675 c -0.00123,-0.21289 -0.1476105,-0.39744 -0.3546105,-0.44711 l -0.4286162,-0.99908 v 0 0 0 c -0.023652,-0.0575 -0.079587,-0.0953 -0.1418441,-0.0956 H 3.154084 c -0.057848,10e-4 -0.110237,0.0344 -0.135677,0.0864 v 0 0 0 l -0.4347833,1.00524 c -0.2081409,0.05 -0.3547955,0.23618 -0.3546105,0.4502 v 1.07925 h 0.308357 v 0.30836 c 0,0.17031 0.1380513,0.30835 0.3083569,0.30835 0.1703056,0 0.3083569,-0.13804 0.3083569,-0.30835 v -0.30836 h 2.1584987 v 0.30836 c 0,0.17031 0.1380513,0.30835 0.3083569,0.30835 0.1703056,0 0.3083569,-0.13804 0.3083569,-0.30835 v -0.30836 h 0.308357 z m -2.9910624,-1.23342 h 1.9734845 l 0.3237748,0.77089 H 2.9228163 Z m -0.400864,1.85014 c -0.1703056,0 -0.3083569,-0.13804 -0.3083569,-0.30835 0,-0.17031 0.1380513,-0.30837 0.3083569,-0.30837 0.1703056,0 0.3083569,0.13806 0.3083569,0.30837 0,0.17031 -0.1380513,0.30835 -0.3083569,0.30835 z m 2.7752125,0 c -0.1703056,0 -0.3083569,-0.13804 -0.3083569,-0.30835 0,-0.17031 0.1380513,-0.30837 0.3083569,-0.30837 0.1703056,0 0.3083569,0.13806 0.3083569,0.30837 0,0.17031 -0.1380513,0.30835 -0.3083569,0.30835 z"
       inkscape:connector-curvature="0"
       style="fill:#ffffff;stroke-width:0.30835694" />
  </g>
</svg>
