<svg width="128" height="128" viewBox="0 0 128 128" fill="none" xmlns="http://www.w3.org/2000/svg">
<rect width="128" height="128" rx="64" fill="#141414"/>
<path fill-rule="evenodd" clip-rule="evenodd" d="M48.453 105.707C48.453 103.77 48.3011 102.148 48.5246 100.584C48.6198 99.9171 49.4009 99.203 50.0379 98.8003C53.1435 96.8362 56.5171 95.268 59.4085 93.0154C68.7741 85.7187 74.3255 76.1131 74.6289 63.6354C74.7149 60.0925 73.4079 59.2074 70.4217 60.5875C61.8019 64.572 52.5325 62.2358 47.5855 54.8313C42.1907 46.7555 42.9504 36.0028 49.4143 28.9481C57.6708 19.9376 71.2562 19.6679 80.6245 28.2733C86.2363 33.4281 88.9028 40.084 89.5677 47.6547C91.797 73.0176 79.0313 93.9229 55.797 103.106C53.4975 104.015 51.1395 104.761 48.453 105.707Z" fill="white"/>
</svg>
