<svg xmlns="http://www.w3.org/2000/svg" width="128" height="128" fill="none"><path fill="#141414" d="M0 0h128v128H0z"/><path fill="#fff" fill-rule="evenodd" d="M49.01 99.5c0-1.65-.13-3.04.06-4.38.08-.57.75-1.18 1.3-1.52 2.65-1.68 5.53-3.02 8-4.94 8-6.23 12.74-14.44 13-25.1.07-3.02-1.04-3.78-3.6-2.6-7.36 3.4-15.27 1.4-19.5-4.92a18.01 18.01 0 0 1 1.56-22.1c7.06-7.7 18.66-7.93 26.66-.58 4.8 4.4 7.07 10.09 7.64 16.55 1.9 21.67-9 39.52-28.85 47.37-1.96.77-3.97 1.41-6.27 2.22Z" clip-rule="evenodd"/></svg>
