<svg xmlns="http://www.w3.org/2000/svg" viewBox="0 0 192 192"><rect width="192" height="192" rx="42" fill="#141414"/><path fill-rule="evenodd" clip-rule="evenodd" d="M73.52 149.25c0-2.48-.2-4.56.09-6.56.12-.86 1.12-1.77 1.94-2.29 3.98-2.52 8.3-4.53 12-7.41 12-9.35 19.12-21.66 19.5-37.64.12-4.54-1.56-5.68-5.38-3.91-11.05 5.1-22.93 2.11-29.26-7.37-6.92-10.35-5.94-24.13 2.34-33.17 10.58-11.54 27.98-11.89 39.99-.86 7.19 6.6 10.6 15.13 11.46 24.83 2.85 32.5-13.5 59.28-43.27 71.05-2.95 1.16-5.97 2.12-9.41 3.33Z" fill="#fff"/></svg>
